<?xml version="1.0" encoding="utf-8"?>
<!-- Generator: Adobe Illustrator 26.0.0, SVG Export Plug-In . SVG Version: 6.00 Build 0)  -->
<svg version="1.1" id="图层_1" xmlns="http://www.w3.org/2000/svg" xmlns:xlink="http://www.w3.org/1999/xlink" x="0px" y="0px"
	 viewBox="0 0 500 500" style="enable-background:new 0 0 500 500;" xml:space="preserve">
<style type="text/css">
	.st0{fill:#6688FF;}
	.st1{fill:#66AAFF;}
	.st2{fill:#66CCFF;}
	.st3{fill:#FFFFFF;}
	.st4{fill:none;stroke:#000000;stroke-width:15;stroke-miterlimit:10;}
</style>
<g id="XMLID_00000088098807553586848070000017485498489260957056_">
	<g>
		<path class="st0" d="M435.4,36.5c3.4,137.3,6.9,274.5,10.3,411.8c-49.5-24.5-99.1-48.9-148.6-73.4h0L435.4,36.5z"/>
		<polygon class="st1" points="435.4,36.5 297.1,374.9 244.3,348.8 		"/>
		<path class="st2" d="M435.4,36.5L244.3,348.8c-6.4-3.1-12.7-6.3-19.1-9.4c-60.8-30-121.5-60-182.3-90L435.4,36.5z"/>
		<path class="st3" d="M244.3,348.8l52.8,26.1C279.5,366.2,261.9,357.5,244.3,348.8L244.3,348.8z"/>
		<path class="st2" d="M244.3,348.8c17.6,8.7,35.2,17.4,52.8,26.1l-23.4,57.4L244.3,348.8z"/>
	</g>
	<g>
		<path class="st4" d="M296.4,375.2c49.5,24.5,99.1,48.9,148.6,73.4c-3.4-137.3-6.9-274.5-10.3-411.8L42.2,249.7
			c60.8,30,121.5,60,182.3,90c6.4,3.1,12.7,6.3,19.1,9.4"/>
		<polygon class="st4" points="243.6,349.2 272.9,432.6 296.4,375.2 434.7,36.8 243.6,349.2 		"/>
		<polyline class="st4" points="296.4,375.2 296.4,375.2 243.6,349.2 		"/>
	</g>
</g>
</svg>
