<?xml version="1.0" encoding="utf-8"?>
<!-- Generator: Adobe Illustrator 26.0.0, SVG Export Plug-In . SVG Version: 6.00 Build 0)  -->
<svg version="1.1" id="图层_1" xmlns="http://www.w3.org/2000/svg" xmlns:xlink="http://www.w3.org/1999/xlink" x="0px" y="0px"
	 viewBox="0 0 500 500" style="enable-background:new 0 0 500 500;" xml:space="preserve">
<style type="text/css">
	.st0{stroke:#000000;stroke-width:10;stroke-miterlimit:10;}
	.st1{fill:#66CCFF;stroke:#000000;stroke-width:10;stroke-miterlimit:10;}
	.st2{fill:#44AAFF;stroke:#000000;stroke-width:10;stroke-miterlimit:10;}
</style>
<g>
	<g>
		<path class="st0" d="M40.2,10.3c0,15.9,0,31.7,0,47.6c0,37.8,0,75.5,0,113.3c0,46,0,92,0,138c0,39.5,0,79,0,118.4
			c0,19.3-0.8,38.7,0,58c0,0.3,0,0.5,0,0.8c0,6.4,10,6.5,10,0c0-15.9,0-31.7,0-47.6c0-37.8,0-75.5,0-113.3c0-46,0-92,0-137.9
			c0-39.5,0-78.9,0-118.4c0-19.3,0.8-38.7,0-58c0-0.3,0-0.5,0-0.8C50.2,3.9,40.2,3.8,40.2,10.3L40.2,10.3z"/>
	</g>
</g>
<g>
	<g>
		<path class="st0" d="M264,486.4c0-0.7,0-1.4,0-2c0-1.3-0.6-2.6-1.5-3.5c-0.9-0.9-2.3-1.5-3.5-1.5c-1.3,0.1-2.6,0.5-3.5,1.5
			c-0.9,1-1.5,2.2-1.5,3.5c0,0.7,0,1.4,0,2c0,1.3,0.6,2.6,1.5,3.5c0.9,0.9,2.3,1.5,3.5,1.5c1.3-0.1,2.6-0.5,3.5-1.5
			C263.4,488.9,264,487.7,264,486.4L264,486.4z"/>
	</g>
</g>
<g>
	<path class="st1" d="M212.9,234.6l-2.8,13.8l-49,238c-41.1-11.7-68.7-38.8-86.6-65l95.9-213.7C184.3,221.2,197.8,227.6,212.9,234.6
		z"/>
	<g>
		<path class="st0" d="M208.1,233.2c-5.6,27.3-11.2,54.6-16.9,82c-9.4,45.7-18.8,91.4-28.2,137.1c-2.2,10.9-4.5,21.8-6.7,32.7
			c2.1-1.2,4.1-2.3,6.1-3.5c-34.8-10.1-63.3-33.1-83.7-62.7c0,1.7,0,3.4,0,5c10.8-24.1,21.7-48.2,32.5-72.3
			c17.2-38.3,34.4-76.5,51.6-114.8c4-8.8,7.9-17.7,11.9-26.5c-2.6,0.3-5.2,0.7-7.9,1c12.7,12.2,27.6,20.3,43.5,27.7
			c5.8,2.7,10.9-5.9,5.1-8.6c-15.1-7-29.4-14.5-41.5-26.1c-2.1-2-6.5-2-7.9,1c-15,33.5-30.1,67-45.1,100.5
			c-16.8,37.4-33.8,74.7-50.4,112.2c-2.2,5,1.1,8.4,4.1,12.4c6.3,8.5,13.3,16.6,20.9,23.9c18.2,17.3,40,30,64.1,37
			c2.5,0.7,5.6-0.9,6.1-3.5c6.1-29.5,12.1-59,18.2-88.5c9-43.6,17.9-87.1,26.9-130.7c2.2-10.9,4.5-21.7,6.7-32.6
			C219,229.6,209.3,226.9,208.1,233.2z"/>
	</g>
</g>
<g>
	<g>
		<path class="st0" d="M70.1,418.8c-9.7,21.7-19.5,43.4-29.2,65c-2.6,5.8,6,10.9,8.6,5c9.7-21.7,19.5-43.4,29.2-65
			C81.4,418,72.8,412.9,70.1,418.8L70.1,418.8z"/>
	</g>
</g>
<g>
	<g>
		<path class="st0" d="M469.7,7.8c-12.1,27-24.2,53.9-36.3,80.9c-19.2,42.7-38.3,85.4-57.5,128.1c-10.3,22.9-20.6,45.9-30.9,68.8
			c-12.3,27.4-24.6,54.8-36.9,82.2c-16.7,37.3-33.5,74.5-50.2,111.8c-0.6,1.4-1.3,2.8-1.9,4.2c-2.6,5.8,6,10.9,8.6,5
			c15.1-33.6,30.2-67.2,45.2-100.8c12.1-27,24.2-53.9,36.3-80.9c11.2-25,22.4-49.9,33.6-74.9c18.3-40.8,36.6-81.5,54.9-122.3
			c14.3-31.9,28.7-63.7,42.9-95.6c0.2-0.5,0.5-1.1,0.7-1.6C481,7,472.3,1.9,469.7,7.8L469.7,7.8z"/>
	</g>
</g>
<g>
	<path class="st2" d="M240.5,248.3H210l2.8-13.8C221.5,238.5,230.6,242.6,240.5,248.3z"/>
	<g>
		<path class="st0" d="M240.5,243.3c-10.1,0-20.3,0-30.5,0c1.6,2.1,3.2,4.2,4.8,6.3c0.9-4.6,1.9-9.2,2.8-13.8c-2.4,1-4.9,2-7.3,3
			c9.4,4.3,18.7,8.7,27.6,13.8c5.6,3.2,10.6-5.4,5.1-8.6c-9-5.1-18.3-9.5-27.6-13.8c-2.7-1.2-6.6-0.4-7.3,3
			c-0.9,4.6-1.9,9.2-2.8,13.8c-0.6,3.1,1.4,6.3,4.8,6.3c10.1,0,20.3,0,30.5,0C246.9,253.3,246.9,243.3,240.5,243.3z"/>
	</g>
</g>
<g>
	<g>
		<path class="st0" d="M259,15.3c24.2,0,48.4,0,72.6,0c38.6,0,77.2,0,115.8,0c8.9,0,17.7,0,26.6,0c6.4,0,6.5-10,0-10
			c-24.2,0-48.4,0-72.6,0c-38.6,0-77.2,0-115.8,0c-8.9,0-17.7,0-26.6,0C252.6,5.3,252.6,15.3,259,15.3L259,15.3z"/>
	</g>
</g>
<g>
	<g>
		<path class="st0" d="M425.1,243.3c-45.8,0-91.6,0-137.5,0c-9.5,0-19.1,0-28.6,0c-6.4,0-6.4,10,0,10c42,0,83.9,0,125.9,0
			c13.4,0,26.8,0,40.2,0C431.5,253.3,431.5,243.3,425.1,243.3L425.1,243.3z"/>
	</g>
</g>
<g>
	<path class="st2" d="M259,10.3v250.1c-6.5-4.8-12.6-8.7-18.5-12.1c-9.9-5.7-19-9.8-27.6-13.8L259,10.3z"/>
	<g>
		<path class="st0" d="M254,10.3c0,28.3,0,56.5,0,84.8c0,44.8,0,89.7,0,134.5c0,10.3,0,20.6,0,30.8c2.5-1.4,5-2.9,7.5-4.3
			c-14.4-10.5-30-18.5-46.1-25.9c0.8,1.9,1.5,3.8,2.3,5.6c5.2-25.2,10.4-50.4,15.5-75.6c8.3-40.3,16.6-80.7,24.9-121
			c1.9-9.2,3.8-18.4,5.7-27.7c1.3-6.3-8.4-9-9.6-2.7c-5.2,25.2-10.4,50.4-15.5,75.6c-8.3,40.3-16.6,80.7-24.9,121
			c-1.9,9.2-3.8,18.4-5.7,27.7c-0.4,2,0.2,4.7,2.3,5.6c16.1,7.4,31.7,15.4,46.1,25.9c3.2,2.3,7.5-0.8,7.5-4.3c0-28.3,0-56.5,0-84.8
			c0-44.8,0-89.7,0-134.5c0-10.3,0-20.6,0-30.8C264,3.9,254,3.8,254,10.3z"/>
	</g>
</g>
<g>
	<path class="st2" d="M259,10.3l-46.1,224.2c-15-6.9-28.6-13.3-42.5-26.9L259,10.3z"/>
	<g>
		<path class="st0" d="M254.2,9c-5.2,25.2-10.4,50.4-15.5,75.6c-8.3,40.3-16.6,80.7-24.9,121c-1.9,9.2-3.8,18.4-5.7,27.7
			c2.4-1,4.9-2,7.3-3c-15.1-7-29.4-14.5-41.5-26.1c0.3,2,0.5,4,0.8,6.1c10-22.3,20-44.6,30-66.9c15.9-35.3,31.8-70.7,47.6-106.1
			c3.7-8.1,7.3-16.3,11-24.5c2.6-5.8-6-10.9-8.6-5.1c-10,22.3-20,44.6-30,66.9c-15.9,35.3-31.8,70.7-47.6,106.1
			c-3.7,8.1-7.3,16.3-11,24.5c-0.9,2-0.9,4.4,0.8,6.1c12.7,12.2,27.6,20.3,43.5,27.7c2.7,1.2,6.6,0.4,7.3-3
			c5.2-25.2,10.4-50.4,15.5-75.6c8.3-40.3,16.6-80.7,24.9-121c1.9-9.2,3.8-18.4,5.7-27.7C265.1,5.3,255.5,2.7,254.2,9z"/>
	</g>
</g>
<g>
	<g>
		<path class="st0" d="M173.9,204.1c-18.6-18.3-34.1-42.3-39.7-67.9c-6.8-30.9,3.2-62.8,24.2-86c16.4-18.1,37.7-30.2,61.9-34.3
			c28.8-4.9,60.5,0.3,86.7,12.8c21.8,10.4,41,25.7,56.6,44c4.2,4.9,11.2-2.2,7.1-7.1c-35.2-41.2-88.5-66-143.1-60.7
			c-27.2,2.6-52.3,14.2-71.7,33.3c-23,22.8-36.7,54.7-33.5,87.4c3.1,32.5,21.4,62.9,44.3,85.6C171.4,215.7,178.5,208.7,173.9,204.1
			L173.9,204.1z"/>
	</g>
</g>
<g>
	<g>
		<path class="st0" d="M40.4,360.4c5.6,22.5,16.8,44.4,29.7,63.5c3.6,5.3,12.2,0.3,8.6-5c-12.5-18.4-23.3-39.3-28.7-61.1
			C48.5,351.5,38.9,354.1,40.4,360.4L40.4,360.4z"/>
	</g>
</g>
<g>
	<path class="st1" d="M259,260.4v223.9c-30.9,9.5-65.9,11.1-97.9,2l49-238h30.5C246.4,251.7,252.5,255.6,259,260.4z"/>
	<g>
		<path class="st0" d="M254,260.4c0,25.2,0,50.4,0,75.6c0,40.2,0,80.4,0,120.5c0,9.3,0,18.5,0,27.8c1.2-1.6,2.4-3.2,3.7-4.8
			c-30.9,9.3-64,10.7-95.2,2c1.2,2,2.3,4.1,3.5,6.1c5.5-26.8,11-53.7,16.6-80.5c8.8-42.7,17.6-85.5,26.4-128.2c2-9.8,4-19.5,6-29.3
			c-1.6,1.2-3.2,2.4-4.8,3.7c7,0,14,0,21.1,0c2.9,0,6.2-0.5,9,0c0.1,0,0.2,0,0.3,0c-1.6-0.1-1.5,0.2,0.2,0.9
			c1.1,1.1,2.9,1.7,4.2,2.6c4,2.5,7.8,5.2,11.6,7.9c5.2,3.8,10.2-4.9,5-8.6c-3.8-2.8-7.6-5.4-11.6-7.9c-2.9-1.8-6-4.4-9.4-4.8
			c-2.6-0.3-5.4,0-8.1,0c-7.5,0-14.9,0-22.4,0c-2.1,0-4.4,1.5-4.8,3.7c-5.5,26.8-11,53.7-16.6,80.5c-8.8,42.7-17.6,85.5-26.4,128.2
			c-2,9.8-4,19.5-6,29.3c-0.6,2.6,0.8,5.4,3.5,6.1c32.9,9.1,68,7.8,100.6-2c2.1-0.6,3.7-2.6,3.7-4.8c0-25.2,0-50.4,0-75.6
			c0-40.2,0-80.4,0-120.5c0-9.3,0-18.5,0-27.8C264,254,254,254,254,260.4z"/>
	</g>
</g>
<g>
	<g>
		<path class="st0" d="M256.5,264.7c30.5,22.4,58.4,53.1,74.1,87.6c8.5,18.5,12.9,39.8,7.1,59.8c-4.4,15.3-14.4,28.2-26.2,38.6
			c-15.4,13.5-34.3,22.8-53.8,28.8c-6.1,1.9-3.5,11.5,2.7,9.6c35-10.8,70.9-32.8,84.9-68.2c16.4-41.7-8.7-86.4-34.6-118.1
			c-14.3-17.5-30.9-33.4-49.1-46.7C256.3,252.3,251.3,261,256.5,264.7L256.5,264.7z"/>
	</g>
</g>
</svg>
